<svg xmlns="http://www.w3.org/2000/svg" width="747.0" height="296.0" viewBox="-17.0 92.0 747.0 296.0" role="img" aria-label="Agent Routing">
  <defs>
    <pattern id="grid" width="120" height="80" patternUnits="userSpaceOnUse">
      <path d="M 120 0 L 0 0 0 80" fill="none" stroke="#e5e7eb" stroke-width="1"/>
    </pattern>
  </defs>
  <rect x="-17.0" y="92.0" width="747.0" height="296.0" fill="#f8fafc"/>
  <g id="arrows">
    <path d="M 217.0 160.0 L 258.0 160.0" fill="none" stroke="#2563eb" stroke-width="3" stroke-linejoin="round" stroke-linecap="round"/>
    <polygon points="249.0,154.6 258.0,160.0 249.0,165.4" fill="#2563eb"/>
    <path d="M 462.0 160.0 L 510.0 160.0" fill="none" stroke="#2563eb" stroke-width="3" stroke-linejoin="round" stroke-linecap="round"/>
    <polygon points="501.0,154.6 510.0,160.0 501.0,165.4" fill="#2563eb"/>
    <path d="M 360.0 188.0 L 360.0 292.0" fill="none" stroke="#16a34a" stroke-width="3" stroke-linejoin="round" stroke-linecap="round" stroke-dasharray="10 8"/>
    <polygon points="365.4,283.0 360.0,292.0 354.6,283.0" fill="#16a34a"/>
    <path d="M 252.5 320.0 L 240.0 320.0 L 240.0 160.0 L 217.0 160.0" fill="none" stroke="#475569" stroke-width="3" stroke-linejoin="round" stroke-linecap="round" stroke-dasharray="6 6"/>
    <polygon points="226.0,165.4 217.0,160.0 226.0,154.6" fill="#475569"/>
  </g>
  <g id="nodes">
    <polygon points="45.0,132.0 195.0,132.0 217.0,160.0 195.0,188.0 45.0,188.0 23.0,160.0" fill="#f8fafc" stroke="#0f172a" stroke-width="2"/>
    <polygon points="280.0,132.0 440.0,132.0 462.0,160.0 440.0,188.0 280.0,188.0 258.0,160.0" fill="#f8fafc" stroke="#0f172a" stroke-width="2"/>
    <rect x="510.0" y="132.0" width="180.0" height="56.0" rx="16" fill="#ffffff" stroke="#0f172a" stroke-width="2"/>
    <rect x="516.0" y="138.0" width="168.0" height="44.0" rx="12" fill="none" stroke="#0f172a" stroke-width="1.5"/>
    <path d="M 252.5 304.0 A 107.5 12.0 0 0 1 467.5 304.0 L 467.5 336.0 A 107.5 12.0 0 0 1 252.5 336.0 Z" fill="#f8fafc" stroke="#14532d" stroke-width="2"/>
    <ellipse cx="360.0" cy="304.0" rx="107.5" ry="12.0" fill="#f8fafc" stroke="#14532d" stroke-width="2"/>
    <path d="M 252.5 336.0 A 107.5 12.0 0 0 0 467.5 336.0" fill="none" stroke="#14532d" stroke-width="2"/>
  </g>
  <g id="labels">
    <rect x="208.0" y="130.0" width="59.0" height="24.0" rx="6" fill="#dbeafe" stroke="#ffffff" stroke-width="2"/>
    <text x="237.5" y="146.0" text-anchor="middle" font-family="Inter, ui-sans-serif, system-ui, -apple-system, BlinkMacSystemFont, 'Segoe UI', sans-serif" font-size="12" font-weight="600" fill="#1d4ed8">briefs</text>
    <rect x="453.0" y="130.0" width="66.0" height="24.0" rx="6" fill="#dbeafe" stroke="#ffffff" stroke-width="2"/>
    <text x="486.0" y="146.0" text-anchor="middle" font-family="Inter, ui-sans-serif, system-ui, -apple-system, BlinkMacSystemFont, 'Segoe UI', sans-serif" font-size="12" font-weight="600" fill="#1d4ed8">runs on</text>
    <rect x="348.5" y="228.0" width="59.0" height="24.0" rx="6" fill="#dcfce7" stroke="#ffffff" stroke-width="2"/>
    <text x="378.0" y="244.0" text-anchor="middle" font-family="Inter, ui-sans-serif, system-ui, -apple-system, BlinkMacSystemFont, 'Segoe UI', sans-serif" font-size="12" font-weight="600" fill="#166534">stores</text>
    <rect x="189.0" y="228.0" width="66.0" height="24.0" rx="6" fill="#e2e8f0" stroke="#ffffff" stroke-width="2"/>
    <text x="222.0" y="244.0" text-anchor="middle" font-family="Inter, ui-sans-serif, system-ui, -apple-system, BlinkMacSystemFont, 'Segoe UI', sans-serif" font-size="12" font-weight="600" fill="#334155">context</text>
    <text x="120.0" y="166.0" text-anchor="middle" font-family="Inter, ui-sans-serif, system-ui, -apple-system, BlinkMacSystemFont, 'Segoe UI', sans-serif" font-size="18" font-weight="600" fill="#0f172a">Operator Agent</text>
    <text x="360.0" y="166.0" text-anchor="middle" font-family="Inter, ui-sans-serif, system-ui, -apple-system, BlinkMacSystemFont, 'Segoe UI', sans-serif" font-size="18" font-weight="600" fill="#0f172a">Execution Agent</text>
    <text x="600.0" y="166.0" text-anchor="middle" font-family="Inter, ui-sans-serif, system-ui, -apple-system, BlinkMacSystemFont, 'Segoe UI', sans-serif" font-size="18" font-weight="600" fill="#0f172a">LLM Runtime</text>
    <text x="360.0" y="326.0" text-anchor="middle" font-family="Inter, ui-sans-serif, system-ui, -apple-system, BlinkMacSystemFont, 'Segoe UI', sans-serif" font-size="18" font-weight="600" fill="#14532d">Workspace Memory</text>
  </g>
</svg>
